<?xml version="1.0" standalone="no"?>
<!DOCTYPE svg PUBLIC "-//W3C//DTD SVG 20010904//EN"
 "http://www.w3.org/TR/2001/REC-SVG-20010904/DTD/svg10.dtd">
<svg version="1.0" xmlns="http://www.w3.org/2000/svg"
 width="640.000000pt" height="640.000000pt" viewBox="0 0 640.000000 640.000000"
 preserveAspectRatio="xMidYMid meet">
<metadata>
Created by potrace 1.14, written by Peter Selinger 2001-2017
</metadata>
<g transform="translate(0.000000,640.000000) scale(0.100000,-0.100000)"
fill="#000000" stroke="none">
<path d="M193 5513 c-13 -2 -23 -11 -23 -18 0 -13 -28 -13 -50 0 -6 3 -10 -1
-10 -10 0 -28 -52 -75 -82 -75 l-28 0 0 -985 c0 -978 0 -985 20 -985 11 0 20
6 20 14 0 17 24 28 44 20 9 -3 21 5 31 20 15 23 22 25 56 20 27 -5 39 -3 39 5
0 7 5 9 10 6 7 -4 9 3 4 22 -6 28 -6 28 10 6 11 -15 26 -21 51 -20 19 1 35 4
35 7 0 3 20 5 44 3 52 -4 74 14 57 46 -6 11 -11 30 -11 42 0 12 -10 42 -22 66
-27 54 -17 79 31 75 22 -1 31 2 31 13 0 11 11 15 40 15 37 0 41 3 47 30 5 27
23 43 23 20 0 -5 14 -25 31 -45 22 -25 37 -34 50 -30 11 4 19 2 19 -5 0 -8 10
-9 30 -5 27 6 30 4 28 -17 -2 -15 4 -26 19 -32 12 -6 24 -18 26 -27 3 -9 19
-20 37 -24 18 -4 52 -25 76 -47 24 -22 48 -37 53 -34 6 4 17 -6 25 -22 19 -38
39 -45 56 -22 13 18 15 17 45 -14 17 -18 41 -38 52 -45 22 -11 57 -5 48 9 -3
4 2 10 10 14 8 3 15 1 15 -4 0 -6 4 -10 9 -10 5 0 8 14 7 30 -2 23 2 30 16 30
10 0 18 5 18 10 0 6 7 10 15 10 22 0 19 10 -12 42 -27 29 -18 37 19 17 19 -10
20 -9 15 10 -5 21 4 26 46 23 9 -1 17 3 17 9 0 8 5 7 15 -1 18 -15 18 -14 5
28 -8 29 -7 33 7 28 9 -4 20 -2 23 5 6 8 13 8 29 0 19 -11 20 -10 14 20 -6 29
-4 31 17 24 14 -4 25 -3 30 5 6 9 14 8 34 -5 21 -14 25 -15 21 -3 -4 9 -17 20
-31 26 -13 7 -24 16 -24 22 0 6 10 5 26 -2 20 -9 30 -9 46 1 15 9 23 9 34 0
12 -9 14 -6 14 20 0 26 4 31 25 31 14 0 25 5 25 11 0 6 9 8 22 4 16 -6 20 -4
15 8 -3 9 -2 17 3 19 25 9 -16 31 -110 59 -58 17 -109 34 -115 39 -5 4 -27 13
-47 19 -47 15 -64 37 -22 28 25 -6 27 -5 10 6 -65 43 -97 69 -91 75 3 4 9 1
13 -5 4 -6 54 -34 112 -63 58 -28 117 -58 131 -66 36 -19 136 -44 174 -44 29
1 28 2 -18 26 -66 34 -53 41 18 10 37 -17 62 -23 72 -17 11 6 12 10 4 15 -15
10 -14 24 2 22 31 -3 17 18 -47 68 -37 30 -108 93 -157 140 -48 47 -92 86 -96
86 -5 0 -19 10 -33 23 -14 12 -49 42 -77 65 -48 40 -65 62 -45 62 4 0 32 -23
61 -50 30 -27 57 -48 59 -45 2 2 -9 21 -25 42 -16 21 -46 65 -67 98 -22 33
-56 81 -77 106 -22 26 -39 55 -39 65 0 12 12 1 33 -31 70 -110 326 -415 349
-415 5 0 6 6 2 13 -9 13 16 -4 56 -41 97 -88 199 -148 255 -149 l40 -1 -43 37
c-23 20 -39 40 -36 44 4 4 18 -2 30 -14 13 -12 30 -19 39 -16 12 5 -1 31 -63
124 -104 155 -126 195 -150 273 -23 76 -47 199 -39 206 2 3 8 -12 11 -32 23
-120 72 -219 153 -304 27 -29 31 -31 27 -12 -4 12 -11 22 -16 22 -5 0 -7 4 -3
10 3 5 1 17 -4 27 -19 36 -32 90 -38 163 -7 99 9 83 32 -30 19 -95 73 -242 86
-234 5 3 6 -1 3 -9 -6 -17 73 -137 101 -151 11 -6 23 -15 27 -21 21 -28 3 16
-36 88 -52 98 -72 157 -86 257 -6 41 -16 83 -24 95 -7 11 -19 45 -26 75 -7 30
-30 109 -52 175 -52 156 -82 315 -60 315 5 0 14 -35 21 -77 19 -126 106 -421
132 -448 5 -5 9 10 9 40 0 36 3 46 10 35 5 -8 10 -47 10 -86 0 -41 6 -86 15
-105 16 -38 17 -33 17 62 0 68 10 102 26 84 5 -6 16 -52 26 -103 24 -130 31
-146 61 -138 19 5 23 3 19 -8 -3 -9 -12 -12 -22 -8 -12 4 -10 -1 6 -18 12 -13
21 -29 19 -35 -2 -5 13 -36 35 -67 39 -58 78 -82 100 -60 19 19 -1 63 -32 75
-17 6 -30 17 -30 24 0 6 -4 14 -9 17 -4 3 -6 -7 -4 -22 l4 -27 -14 24 c-8 14
-13 31 -10 38 3 6 -2 21 -10 33 -13 19 -15 19 -21 4 -4 -9 -9 -14 -13 -11 -10
10 17 36 32 31 7 -3 16 -1 19 5 10 16 36 1 36 -21 0 -10 5 -16 10 -13 6 3 7
18 4 33 -4 21 -3 24 5 12 9 -13 11 -11 11 7 0 12 -6 24 -12 27 -10 5 -10 7 -1
12 15 7 17 44 3 44 -5 0 -10 13 -10 29 0 39 -10 62 -23 54 -6 -3 -7 -1 -3 6 9
13 -12 44 -24 36 -4 -3 -11 2 -14 11 -4 10 -2 13 7 8 10 -7 -36 61 -52 76 -4
3 -15 16 -26 30 l-20 25 25 -20 c58 -47 120 -109 120 -121 0 -6 7 -15 16 -18
9 -3 12 -11 8 -18 -5 -10 -4 -10 6 -1 11 10 11 15 0 28 -11 13 -10 14 4 9 11
-4 16 -1 16 10 0 9 5 16 11 16 7 0 8 -11 4 -30 -5 -23 -3 -30 8 -30 18 0 21
-66 4 -77 -7 -4 -8 0 -3 13 6 15 5 17 -5 7 -10 -10 -10 -16 -1 -25 7 -7 12 -8
12 -4 0 5 7 3 15 -4 12 -10 13 -16 4 -27 -9 -10 -9 -17 -1 -25 9 -9 12 -7 12
9 0 12 5 25 11 28 6 4 8 13 5 21 -6 15 34 64 53 64 6 0 11 -13 11 -30 0 -16 5
-30 10 -30 6 0 10 -12 10 -26 0 -14 -4 -23 -9 -19 -5 3 -12 -4 -16 -15 -4 -11
-11 -17 -17 -14 -7 4 -8 -4 -3 -25 4 -19 3 -31 -3 -31 -6 0 -13 -8 -16 -17 -3
-10 -3 2 -1 27 4 37 3 41 -6 20 -11 -26 6 -202 22 -230 13 -23 11 67 -2 91 -6
12 -8 37 -4 62 7 38 8 40 22 21 14 -18 14 -18 8 7 -5 19 -2 26 9 26 9 0 16 -9
16 -21 1 -43 22 13 27 70 2 30 13 70 23 87 10 18 21 46 25 64 3 17 12 37 20
43 11 9 12 4 5 -25 l-8 -35 29 17 c16 10 29 21 29 25 0 4 6 5 14 2 8 -3 19 3
25 15 6 11 17 18 25 15 19 -7 24 4 28 59 2 27 8 47 14 47 14 0 40 38 45 65 3
12 12 20 24 20 14 0 20 8 22 30 1 16 7 31 13 33 19 7 10 44 -15 64 -14 11 -23
24 -20 29 7 10 -8 12 -18 3 -4 -4 -22 -7 -42 -8 -30 -1 -34 2 -29 19 3 11 12
30 20 42 11 18 11 22 -3 27 -10 4 -13 14 -10 27 4 13 0 22 -11 25 -9 3 -25 10
-35 15 -38 21 -109 19 -145 -3 -31 -19 -37 -20 -95 -7 -34 7 -54 15 -44 17 27
6 9 22 -26 23 -18 1 -24 3 -14 6 10 3 17 14 17 26 -1 20 -1 21 -11 4 -8 -14
-14 -16 -25 -6 -18 15 -18 45 1 53 22 8 6 36 -21 36 -17 0 -24 6 -24 20 0 21
-33 29 -45 10 -8 -13 -41 -13 -82 2 -23 8 -41 9 -60 2 -18 -6 -47 -7 -78 -1
l-49 9 -36 -42 c-41 -48 -63 -50 -88 -7 -14 22 -14 29 -4 36 10 6 10 10 -3 21
-8 7 -15 20 -15 30 0 17 -36 34 -52 24 -4 -3 -8 -14 -8 -25 0 -13 -7 -19 -22
-19 -18 0 -29 -13 -50 -58 -14 -31 -29 -69 -32 -84 -5 -21 -10 -25 -28 -21
-18 4 -20 2 -9 -5 9 -6 16 -31 17 -57 2 -26 7 -52 12 -58 5 -7 12 -31 16 -55
3 -24 11 -51 16 -60 5 -9 19 -64 30 -121 38 -197 18 -143 -52 139 -47 193 -52
204 -81 207 -12 2 -42 5 -67 9 -25 3 -58 7 -75 8 -16 0 -33 5 -37 11 -4 6 -8
2 -8 -9 0 -12 -5 -16 -16 -12 -9 3 -18 6 -20 6 -3 0 -3 4 0 9 3 4 -5 8 -17 7
-13 -1 -21 -8 -19 -16 2 -12 0 -12 -10 1 -11 13 -27 14 -93 8 -44 -3 -87 -3
-96 2 -9 4 -26 5 -37 2 -12 -3 -28 0 -36 6 -7 6 -26 9 -42 5 -16 -3 -55 -1
-87 4 -32 5 -60 5 -63 1 -9 -16 -37 -10 -30 6 3 8 2 15 -3 15 -5 0 -14 -7 -21
-15 -7 -8 -18 -15 -26 -15 -7 0 -19 -9 -27 -20 -8 -11 -27 -23 -44 -26 -24 -5
-36 -1 -57 20 -14 15 -26 30 -26 34 0 4 -12 8 -26 9 -15 0 -29 5 -33 10 -9 14
-141 17 -141 4 0 -6 -8 -11 -17 -11 -28 0 -103 32 -97 41 3 5 -2 9 -10 9 -20
0 -20 14 -1 34 13 13 13 19 3 36 -10 16 -10 24 -1 40 18 28 -19 90 -53 90 -15
0 -24 6 -24 15 0 8 -3 14 -7 14 -5 -1 -18 -4 -30 -6z m2017 -263 c0 -15 -6
-19 -25 -18 -30 3 -31 6 -7 24 24 19 32 17 32 -6z m-1299 -370 c40 -22 14 -80
-35 -80 -27 0 -40 38 -21 66 17 27 27 29 56 14z m1499 -312 c0 -4 -6 -8 -14
-8 -9 0 -12 -10 -10 -32 3 -24 1 -29 -6 -18 -5 8 -10 26 -10 40 0 19 5 26 20
26 11 0 20 -4 20 -8z m-1439 -112 c41 -34 89 -71 105 -84 l29 -23 -38 20 c-53
29 -56 26 -17 -14 19 -19 30 -35 24 -35 -5 0 -27 19 -49 42 -22 22 -66 66 -97
97 -32 31 -58 60 -58 64 0 11 15 2 101 -67z m568 -51 c14 -22 28 -42 31 -45
23 -20 62 -82 50 -78 -8 2 -39 36 -68 74 -28 38 -57 75 -62 81 -6 7 -15 25
-21 40 l-10 28 27 -30 c14 -16 38 -48 53 -70z m676 -67 c2 -13 6 -32 10 -43 6
-16 3 -15 -14 5 -11 14 -16 29 -11 34 5 5 6 16 3 25 -4 9 -3 13 2 9 4 -4 9
-18 10 -30z m-959 -90 c10 -11 -5 -4 -33 16 -29 21 -53 40 -53 42 0 8 68 -38
86 -58z m187 -100 c149 -80 229 -128 214 -128 -4 0 -15 4 -25 10 -9 5 -58 29
-108 54 -146 70 -270 146 -239 146 4 0 75 -37 158 -82z m-176 16 c18 -16 21
-22 8 -15 -32 15 -61 40 -48 41 7 0 25 -12 40 -26z"/>
<path d="M1776 5511 c-8 -12 3 -41 15 -41 12 0 12 37 0 45 -5 3 -12 1 -15 -4z"/>
<path d="M516 5376 c5 -13 4 -17 -4 -12 -8 4 -12 0 -12 -11 0 -16 1 -16 17 0
14 14 15 19 4 29 -10 11 -11 9 -5 -6z"/>
<path d="M3242 4866 c-34 -7 -41 -12 -37 -27 5 -14 2 -16 -16 -12 -18 5 -20 3
-15 -14 4 -12 1 -25 -7 -32 -14 -11 -10 -35 20 -121 3 -8 7 -33 8 -55 2 -37
-1 -43 -36 -70 -34 -25 -39 -34 -39 -71 0 -31 -5 -44 -17 -49 -16 -6 -17 -8
-2 -18 24 -18 22 -75 -2 -82 -10 -4 -23 -4 -28 -1 -13 9 -39 -26 -43 -58 -3
-26 -12 -33 -83 -63 -66 -28 -92 -34 -155 -35 -41 0 -88 5 -103 11 -31 12 -51
6 -41 -12 4 -7 3 -9 -1 -4 -5 4 -16 24 -26 45 l-17 37 0 -70 c0 -38 2 -62 5
-52 6 25 18 21 30 -10 l11 -28 2 30 2 30 9 -25 c8 -23 13 -25 64 -22 52 4 55
2 65 -23 6 -15 8 -30 5 -35 -3 -4 1 -12 8 -18 19 -16 158 -52 171 -44 6 3 19
5 29 4 9 -2 17 2 17 8 0 8 7 9 18 5 9 -5 42 -9 72 -11 30 -2 71 -5 90 -6 25
-2 69 11 150 45 63 27 127 53 142 59 16 6 25 15 22 23 -4 10 1 12 18 9 22 -5
22 -5 4 10 -22 18 -51 22 -41 6 9 -15 1 -12 -42 13 -26 15 -37 28 -35 40 4 22
3 22 60 -13 27 -16 53 -30 58 -30 5 0 17 -9 27 -20 9 -11 25 -20 35 -20 42 0
171 -103 172 -137 1 -38 133 -79 167 -52 10 8 14 9 10 2 -4 -6 -3 -14 2 -18 6
-3 8 -12 4 -20 -7 -21 55 -20 85 1 12 8 22 10 22 5 0 -6 -5 -11 -11 -11 -8 0
-9 -4 0 -13 6 -8 9 -17 6 -20 -3 -4 9 7 26 24 22 21 35 27 43 20 9 -8 19 -5
34 10 12 11 22 18 22 16 0 -12 -45 -104 -57 -119 -16 -18 -10 -38 13 -38 16 0
18 -12 4 -26 -16 -16 6 -37 33 -30 44 11 171 110 221 173 27 35 52 61 54 59 4
-5 -39 -69 -50 -74 -5 -2 -8 -9 -8 -16 0 -16 -54 -66 -120 -110 l-55 -37 75 4
c42 2 86 10 99 16 24 13 41 7 25 -9 -13 -13 -173 -50 -190 -43 -8 3 -14 0 -14
-6 0 -15 48 -25 63 -13 6 5 31 12 55 16 24 3 70 16 103 27 33 12 63 18 66 15
7 -7 -59 -36 -82 -36 -8 0 -15 -4 -15 -10 0 -5 -16 -12 -35 -16 -54 -10 -53
-25 1 -19 63 8 148 38 197 70 21 15 43 25 49 23 13 -5 -107 -76 -169 -101 -24
-9 -69 -19 -100 -23 -72 -7 -89 -12 -77 -23 11 -10 200 4 321 24 51 9 132 29
180 46 48 17 102 34 118 38 17 4 44 15 62 24 18 10 40 17 50 17 17 1 17 1 0
14 -16 12 -16 14 -1 20 25 10 41 6 19 -5 -17 -8 -17 -9 5 -4 62 13 104 17 98
10 -12 -13 -116 -54 -263 -104 -77 -27 -138 -52 -136 -57 6 -11 -38 -21 -99
-23 -25 -1 -85 -10 -135 -21 l-90 -18 105 -2 c58 -2 151 -3 207 -4 55 -1 99
-4 96 -8 -2 -5 0 -8 6 -8 5 0 12 4 15 9 3 5 70 10 149 10 78 1 203 3 277 6 81
3 127 2 115 -3 -11 -5 -125 -12 -254 -15 -153 -5 -237 -11 -242 -18 -4 -8 -54
-8 -175 -2 -93 6 -194 7 -224 4 l-55 -6 107 -24 c59 -13 110 -23 114 -21 4 1
10 -3 13 -8 3 -5 47 -12 96 -14 50 -3 88 -8 87 -13 -2 -4 2 -12 10 -17 9 -7 5
-8 -12 -3 -14 3 -68 9 -121 12 -156 9 -127 -11 54 -38 144 -21 196 -24 467
-24 270 0 315 -7 100 -16 l-75 -3 80 -6 c52 -4 66 -7 40 -9 -57 -4 -206 -1
-235 4 -14 3 -188 12 -388 20 -200 8 -382 18 -404 22 -29 4 -39 3 -34 -5 10
-16 131 -52 175 -52 20 0 41 -4 47 -10 5 -5 70 -15 144 -20 186 -15 193 -20
18 -14 -145 6 -148 5 -148 -15 0 -12 -6 -21 -12 -21 -7 0 0 -12 15 -25 24 -21
39 -25 100 -27 40 0 81 0 92 0 14 2 16 0 7 -6 -7 -5 -36 -10 -65 -11 -29 -1
-59 -4 -67 -6 -9 -3 -47 4 -85 16 -96 28 -133 34 -119 20 6 -6 48 -23 95 -36
102 -30 11 -17 -126 19 -72 18 -75 19 -75 7 0 -6 19 -22 43 -36 27 -17 33 -24
17 -19 -14 4 -40 8 -58 10 -26 2 -32 -1 -30 -13 2 -9 17 -20 33 -26 17 -5 44
-15 60 -22 17 -7 45 -16 63 -20 18 -4 31 -9 28 -12 -2 -3 -30 3 -61 12 -65 18
-78 15 -39 -9 14 -10 23 -20 21 -23 -3 -3 -21 7 -40 21 -19 14 -38 26 -44 26
-14 0 -9 -43 5 -48 7 -2 12 -11 12 -20 0 -22 46 -72 66 -72 8 0 12 -4 9 -10
-3 -5 -16 -10 -28 -9 -38 0 -117 -13 -122 -22 -3 -4 6 -16 20 -27 14 -11 25
-25 25 -32 0 -9 -3 -10 -14 -1 -15 13 -58 11 -68 -4 -4 -5 -5 -19 -2 -29 5
-15 3 -18 -10 -13 -19 7 -14 -5 12 -36 8 -9 12 -20 7 -25 -4 -4 -10 -1 -12 6
-3 7 -14 17 -25 23 -17 9 -18 8 -10 -8 5 -10 7 -24 5 -30 -3 -7 1 -13 7 -13 7
0 10 -7 6 -15 -3 -8 0 -14 6 -12 6 1 13 -4 15 -11 3 -8 -1 -10 -11 -6 -19 7
-21 -7 -3 -25 10 -10 9 -11 -5 -6 -9 4 -19 14 -21 23 -4 13 -5 11 -6 -4 0 -12
9 -34 21 -49 21 -27 21 -27 1 -21 -13 4 -24 2 -29 -5 -4 -8 -3 -9 4 -5 7 4 12
2 12 -5 0 -6 -8 -9 -20 -6 -13 3 -20 0 -20 -9 0 -8 8 -14 18 -14 16 -1 16 -1
-1 -14 -14 -11 -15 -15 -5 -19 8 -4 5 -8 -10 -13 -23 -7 -23 -7 -2 -21 21 -15
29 -40 8 -27 -7 4 -23 8 -36 9 -22 1 -22 -1 10 -27 l33 -28 -30 2 c-37 4 -46
-23 -13 -41 22 -11 22 -11 -7 -7 -16 3 -38 8 -49 12 -16 6 -17 4 -8 -12 9 -18
13 -94 4 -94 -2 0 -12 5 -23 10 -11 6 -24 8 -29 5 -11 -7 8 -65 21 -65 5 0 9
-7 9 -15 0 -8 -4 -15 -10 -15 -5 0 -10 -7 -10 -15 0 -8 -4 -15 -10 -15 -5 0
-10 -8 -10 -17 0 -15 -2 -16 -10 -3 -5 8 -11 12 -15 9 -3 -3 4 -18 15 -32 l21
-26 -38 -10 c-21 -6 -44 -11 -51 -11 -7 0 -10 -5 -7 -10 4 -6 1 -17 -5 -25 -7
-8 -9 -26 -6 -40 4 -14 3 -25 -2 -25 -13 0 -15 -92 -1 -100 6 -4 12 -21 13
-37 2 -39 21 -62 46 -56 11 3 20 0 20 -6 0 -6 -5 -11 -12 -11 -6 0 -3 -7 8
-15 15 -12 16 -14 3 -15 -16 0 -23 -30 -7 -30 4 0 8 -5 8 -11 0 -6 -6 -9 -14
-6 -11 4 -14 -3 -12 -32 1 -29 9 -45 31 -64 25 -21 27 -27 17 -40 -11 -13 -10
-17 5 -26 17 -9 17 -10 -1 -17 -17 -7 -17 -8 5 -21 l24 -13 -27 4 c-20 3 -28
0 -28 -10 0 -8 -4 -14 -9 -14 -4 0 -6 -12 -3 -27 5 -25 4 -27 -11 -14 -15 12
-19 10 -36 -10 -18 -22 -19 -25 -4 -37 9 -6 26 -12 37 -12 12 0 27 -4 35 -9
10 -6 4 -11 -20 -16 -49 -11 -52 -15 -33 -37 15 -16 16 -21 4 -28 -11 -7 -11
-12 3 -33 8 -13 22 -31 30 -39 20 -20 17 -49 -8 -71 -15 -14 -16 -20 -6 -26
10 -6 9 -10 -4 -15 -14 -5 -16 -14 -12 -40 4 -26 2 -36 -11 -41 -14 -5 -13 -8
8 -20 l25 -13 -27 -11 c-39 -15 -42 -29 -7 -36 40 -9 28 -20 -18 -16 -22 2
-33 -1 -29 -7 3 -6 -7 -13 -24 -17 -38 -8 -38 -22 0 -30 30 -7 51 -25 29 -25
-7 0 -21 -7 -31 -16 -17 -16 -16 -17 14 -33 48 -24 49 -44 3 -35 -27 5 -36 4
-31 -5 4 -6 2 -11 -4 -11 -7 0 -10 -7 -6 -15 3 -9 -1 -15 -11 -15 -12 0 -13
-3 -4 -14 9 -11 9 -15 -1 -19 -7 -3 -3 -6 8 -6 27 -1 39 -40 20 -60 -12 -11
-11 -16 5 -32 29 -29 24 -42 -13 -35 -30 5 -31 4 -15 -8 12 -9 14 -16 7 -21
-6 -4 -8 -15 -5 -26 5 -15 1 -19 -18 -19 -14 0 -27 5 -29 12 -3 7 -12 9 -24 4
-18 -7 -17 -8 6 -21 31 -18 7 -18 -40 -2 -19 7 -44 12 -55 12 -11 0 -23 5 -27
10 -5 6 -8 6 -8 -2 0 -6 5 -15 10 -18 20 -12 9 -22 -17 -17 -25 5 -26 3 -15
-10 7 -9 42 -22 78 -29 55 -11 63 -15 50 -25 -15 -11 -15 -12 0 -18 8 -3 24
-6 35 -6 24 0 25 -20 2 -21 -10 -1 -27 -2 -38 -3 -11 0 -19 -7 -18 -13 2 -7
-5 -13 -15 -13 -15 -1 -15 -2 2 -15 19 -14 19 -15 1 -15 -18 0 -18 -1 1 -15
10 -8 34 -15 52 -15 18 0 31 -4 27 -9 -3 -5 3 -12 12 -15 10 -2 1 -2 -20 1
-32 5 -36 3 -31 -12 7 -18 9 -18 -55 0 -16 5 -21 4 -17 -4 4 -6 13 -11 19 -11
7 0 18 -9 25 -20 12 -19 11 -20 -14 -14 -19 5 -25 4 -20 -5 4 -6 19 -11 34
-12 26 -1 25 -2 -10 -17 -50 -22 -50 -47 0 -56 20 -3 639 -6 1375 -6 l1337 0
0 2080 0 2080 -60 0 -60 0 0 -30 c0 -39 -27 -40 -66 -2 -35 35 -58 44 -73 29
-8 -8 -16 -6 -31 8 -11 10 -20 14 -20 9 0 -5 -4 -2 -10 6 -12 20 -22 8 -25
-32 -3 -36 -24 -48 -46 -26 -8 8 -28 23 -44 35 -27 19 -33 19 -50 7 -25 -18
-46 -18 -39 1 4 10 0 15 -14 15 -11 0 -22 -6 -25 -12 -3 -10 -9 -10 -26 0 -15
8 -21 9 -21 1 0 -6 -7 -8 -16 -5 -8 3 -12 2 -9 -4 3 -6 -5 -10 -19 -10 -23 0
-25 2 -16 26 13 33 13 34 -5 34 -8 0 -15 8 -15 19 0 11 -9 21 -22 25 -37 10
-51 7 -45 -9 4 -8 2 -17 -3 -20 -4 -3 -7 -21 -6 -40 3 -38 -7 -46 -47 -38 -32
6 -34 14 -7 31 26 16 25 30 -2 35 -20 3 -18 5 10 12 24 5 30 10 20 16 -7 5 -8
9 -3 10 20 1 -31 18 -58 18 -22 1 -31 8 -40 30 -9 25 -17 30 -51 33 -57 4 -97
-1 -90 -13 3 -6 -3 -5 -14 2 -16 10 -24 10 -35 1 -19 -16 -44 -6 -51 21 -3 12
-15 27 -28 32 -13 6 -21 14 -18 20 8 16 -53 22 -76 8 -19 -12 -25 -11 -53 13
-17 14 -41 26 -54 25 -12 0 -31 -1 -42 -2 -46 -3 -115 5 -115 13 0 5 -19 8
-42 8 -24 -1 -74 3 -113 9 -38 5 -71 6 -73 2 -2 -7 -30 -4 -77 9 -15 5 -45
-11 -45 -22 0 -7 20 -9 55 -5 55 6 55 5 69 -27 7 -18 26 -43 42 -55 l29 -23
-21 -17 c-21 -17 -21 -41 0 -41 18 0 49 -37 42 -48 -12 -19 6 -39 45 -52 24
-8 47 -25 59 -44 44 -68 65 -84 119 -89 29 -3 53 -6 54 -8 1 -2 8 -14 15 -26
15 -28 15 -48 0 -76 -6 -12 -13 -38 -15 -57 -5 -48 -16 -55 -52 -34 -32 19
-40 39 -19 46 16 6 -12 68 -32 69 -8 1 -24 3 -35 5 -11 2 -44 5 -74 8 -46 4
-85 16 -53 16 7 0 12 6 12 14 0 8 9 21 20 29 l21 14 -21 6 c-12 3 -24 14 -27
25 -4 16 -17 21 -62 26 -72 8 -85 18 -101 79 -12 46 -18 51 -52 48 -24 -3 -42
34 -29 58 11 20 -3 40 -31 45 -7 1 -23 7 -35 14 -12 7 -29 9 -37 6 -9 -3 -16
-1 -16 5 0 6 -5 11 -11 11 -6 0 -22 9 -35 19 -26 20 -63 18 -77 -6 -4 -7 -19
-13 -32 -13 -16 0 -25 -6 -25 -15 0 -8 -4 -15 -10 -15 -5 0 -10 6 -10 14 0 7
-7 19 -15 26 -8 6 -14 15 -13 18 2 19 -3 33 -11 28 -5 -3 -12 1 -15 10 -5 13
-9 14 -21 4 -9 -7 -15 -35 -17 -78 -3 -60 -5 -68 -30 -82 -26 -14 -31 -13 -74
10 -25 14 -52 33 -58 43 -14 19 -10 100 6 131 6 11 6 22 0 28 -12 12 -62 0
-62 -15 0 -7 -4 -7 -12 1 -21 21 -43 13 -86 -28 -48 -47 -70 -50 -144 -16 -29
14 -75 30 -102 37 -38 10 -53 20 -68 45 -23 38 -44 48 -91 39 -50 -10 -60 9
-62 118 -3 86 -15 159 -32 182 -6 7 -22 8 -51 1z m1013 -566 c9 -16 23 -30 33
-30 13 -1 11 -4 -8 -15 -32 -18 -40 -18 -40 0 0 8 -7 15 -15 15 -21 0 -30 27
-15 45 18 22 28 19 45 -15z m165 7 c0 -12 25 -28 63 -43 23 -9 22 -21 -4 -29
-13 -4 -27 -1 -40 10 -15 14 -22 15 -33 6 -10 -9 -16 -9 -21 -1 -4 6 -13 9
-20 6 -8 -3 -19 2 -25 10 -10 11 -9 14 4 14 9 0 16 7 16 15 0 8 9 15 20 15 11
0 20 5 20 11 0 5 5 7 10 4 6 -3 10 -12 10 -18z m873 -78 c-5 -61 -7 -69 -20
-69 -7 0 -13 -4 -13 -10 0 -5 -9 -10 -20 -10 -11 0 -20 7 -20 15 0 7 -7 18
-15 22 -8 5 -16 20 -17 33 -3 22 1 25 25 23 15 -1 25 2 22 8 -4 5 3 9 14 9 12
0 21 5 21 11 0 6 6 9 13 6 7 -2 11 -18 10 -38z m-1181 -111 c-7 -7 -12 -8 -12
-2 0 6 3 14 7 17 3 4 9 5 12 2 2 -3 -1 -11 -7 -17z m1448 -2 c0 -3 -4 -8 -10
-11 -5 -3 -10 -1 -10 4 0 6 5 11 10 11 6 0 10 -2 10 -4z m-1530 -40 c0 -8 -32
-2 -49 9 -12 7 -11 10 4 15 18 6 45 -9 45 -24z m40 -4 c0 -10 -35 -52 -43 -52
-3 0 1 14 9 30 14 28 34 41 34 22z m440 -61 c0 -11 -31 -44 -36 -39 -2 2 -1
14 3 26 5 21 33 32 33 13z m-695 -61 c3 -5 1 -10 -4 -10 -6 0 -11 5 -11 10 0
6 2 10 4 10 3 0 8 -4 11 -10z m1185 -130 c0 -5 -4 -10 -10 -10 -5 0 -10 5 -10
10 0 6 5 10 10 10 6 0 10 -4 10 -10z m-380 -85 c0 -8 -9 -15 -20 -15 -12 0
-35 -7 -51 -16 -48 -24 -45 -9 3 19 51 29 68 33 68 12z m1244 -155 c-52 -23
-147 -44 -165 -37 -8 3 -3 6 11 6 14 1 59 12 100 25 90 29 110 31 54 6z m-221
-47 c-7 -2 -19 -2 -25 0 -7 3 -2 5 12 5 14 0 19 -2 13 -5z m-140 -20 c-7 -2
-19 -2 -25 0 -7 3 -2 5 12 5 14 0 19 -2 13 -5z m-438 -123 c32 -5 5 -6 -75 -3
-69 3 -127 7 -129 9 -8 7 154 2 204 -6z m274 -26 c7 -7 -100 -2 -164 6 -43 6
-28 7 50 3 61 -3 112 -7 114 -9z m-446 -1 c-7 -2 -19 -2 -25 0 -7 3 -2 5 12 5
14 0 19 -2 13 -5z m54 -9 c-3 -3 -12 -4 -19 -1 -8 3 -5 6 6 6 11 1 17 -2 13
-5z m510 -1 c-20 -2 -52 -2 -70 0 -17 2 0 4 38 4 39 0 53 -2 32 -4z m-460 -9
c-3 -3 -12 -4 -19 -1 -8 3 -5 6 6 6 11 1 17 -2 13 -5z m60 -10 c-3 -3 -12 -4
-19 -1 -8 3 -5 6 6 6 11 1 17 -2 13 -5z m696 -51 c-62 -2 -164 -2 -225 0 -62
1 -12 3 112 3 124 0 174 -2 113 -3z m-1048 -184 c14 -6 9 -7 -15 -3 -19 4 -44
11 -55 15 -14 6 -9 7 15 3 19 -4 44 -11 55 -15z m-78 -5 c-3 -3 -12 -4 -19 -1
-8 3 -5 6 6 6 11 1 17 -2 13 -5z m40 -10 c-3 -3 -12 -4 -19 -1 -8 3 -5 6 6 6
11 1 17 -2 13 -5z m1008 -30 c-98 -26 -256 -56 -262 -50 -3 2 58 18 134 36 76
17 143 33 148 35 6 2 24 3 40 3 17 0 -9 -10 -60 -24z m-745 -24 c30 -10 46
-18 35 -19 -24 -1 -108 24 -133 39 -22 13 19 5 98 -20z m-380 10 c8 -5 11 -10
5 -10 -5 0 -17 5 -25 10 -8 5 -10 10 -5 10 6 0 17 -5 25 -10z m55 -10 c3 -5
-3 -10 -15 -10 -12 0 -18 5 -15 10 3 6 10 10 15 10 5 0 12 -4 15 -10z m55 -36
c0 -2 -9 0 -20 6 -11 6 -20 13 -20 16 0 2 9 0 20 -6 11 -6 20 -13 20 -16z
m435 -8 c18 -8 36 -11 40 -8 4 4 41 7 83 8 42 0 100 4 127 8 40 6 47 5 38 -5
-7 -7 -53 -14 -114 -17 -93 -4 -101 -6 -83 -20 18 -14 18 -14 1 -8 -10 3 -37
9 -58 12 -51 8 -124 44 -91 44 13 0 38 -6 57 -14z m-628 -43 c-6 -5 -67 30
-67 39 0 4 16 -2 35 -14 20 -11 34 -22 32 -25z m110 31 c-3 -3 -12 -4 -19 -1
-8 3 -5 6 6 6 11 1 17 -2 13 -5z m-22 -82 c-5 -5 -63 26 -69 37 -4 5 12 0 33
-12 22 -12 38 -23 36 -25z m722 32 c-3 -3 -12 -4 -19 -1 -8 3 -5 6 6 6 11 1
17 -2 13 -5z m-667 -54 c0 -5 26 -21 58 -36 48 -24 113 -65 132 -84 3 -3 21
-14 40 -24 19 -11 78 -43 130 -73 78 -43 101 -52 127 -47 38 7 67 -6 38 -16
-18 -6 -18 -8 7 -33 14 -14 54 -40 88 -57 34 -17 60 -34 57 -36 -3 -3 -41 15
-86 40 -44 25 -84 46 -88 46 -4 0 -47 26 -95 58 -48 31 -118 74 -155 95 -78
43 -86 47 -173 103 -97 62 -107 66 -128 55 -11 -6 -31 -7 -48 -2 l-29 8 25 6
c62 15 100 14 100 -3z m-82 -127 c7 -7 9 -13 5 -13 -5 0 -22 15 -39 32 -23 26
-24 29 -4 13 13 -11 30 -26 38 -32z m57 -53 c10 -11 16 -20 13 -20 -3 0 -13 9
-23 20 -10 11 -16 20 -13 20 3 0 13 -9 23 -20z m612 -10 c28 -16 55 -35 59
-41 5 -8 3 -9 -7 -3 -8 4 -38 23 -68 41 -68 41 -55 44 16 3z m-757 -25 c13
-14 21 -25 18 -25 -2 0 -15 11 -28 25 -13 14 -21 25 -18 25 2 0 15 -11 28 -25z
m148 -133 c8 -7 13 -15 11 -17 -5 -5 -99 82 -99 91 0 5 17 -8 37 -27 20 -18
43 -40 51 -47z m179 15 c11 -16 79 -67 91 -67 5 0 17 -9 28 -21 24 -27 69 -50
79 -41 5 4 5 2 2 -4 -4 -7 3 -19 16 -27 12 -8 31 -23 42 -34 11 -10 37 -32 59
-48 45 -34 108 -93 86 -80 -8 5 -46 28 -84 53 -37 24 -71 40 -74 37 -4 -3 0
-11 8 -16 13 -9 13 -10 0 -6 -8 2 -15 11 -15 20 0 8 -14 26 -30 38 l-30 23 24
-27 c14 -15 22 -27 18 -27 -4 0 2 -15 13 -32 26 -44 25 -56 -2 -31 -29 27
-102 29 -88 3 5 -9 31 -34 57 -56 26 -21 50 -41 53 -44 48 -50 52 -51 150 -40
52 6 96 13 99 16 4 3 -14 24 -39 46 l-45 40 60 -41 60 -41 85 21 c47 11 136
36 198 56 93 29 111 37 101 49 -10 12 -6 13 22 8 19 -4 41 -13 50 -20 8 -8 18
-14 21 -14 4 0 41 -16 85 -36 43 -20 98 -45 122 -55 24 -11 41 -22 38 -25 -3
-3 -56 18 -119 46 -62 29 -126 58 -143 65 -17 8 -36 10 -45 6 -44 -23 -334
-110 -377 -113 -21 -2 -3 -18 68 -64 66 -43 90 -64 71 -64 -4 0 -17 8 -28 18
-10 9 -48 37 -83 61 l-64 45 -83 -12 c-112 -17 -120 -20 -96 -41 47 -40 129
-119 147 -141 l20 -25 -24 20 c-13 11 -40 36 -61 55 -20 19 -59 51 -86 71 -45
33 -55 36 -124 37 -86 2 -238 19 -290 32 l-35 9 35 -4 c19 -3 103 -8 185 -11
l150 -6 -73 68 c-40 38 -92 79 -115 92 -23 12 -38 22 -33 22 5 0 -1 12 -15 26
l-24 27 33 -17 c30 -16 32 -16 32 2 0 10 5 23 11 29 22 22 -2 70 -71 142 -39
40 -70 75 -70 77 0 8 39 -16 47 -29z m427 -199 c8 -14 6 -21 -9 -32 -31 -24
-64 -20 -77 10 -10 21 -9 27 3 35 21 14 71 6 83 -13z m341 -6 c-3 -3 -11 0
-18 7 -9 10 -8 11 6 5 10 -3 15 -9 12 -12z m90 -33 c25 -12 44 -24 41 -26 -2
-2 -26 7 -53 21 -59 31 -50 34 12 5z m-1145 -108 c37 -17 52 -28 35 -24 -38 7
-152 65 -185 94 -18 15 -9 12 30 -10 31 -16 85 -44 120 -60z m100 -41 c13 -8
13 -10 -2 -10 -9 0 -20 5 -23 10 -8 13 5 13 25 0z m87 -26 c-3 -3 -12 -4 -19
-1 -8 3 -5 6 6 6 11 1 17 -2 13 -5z m1448 -40 c24 -11 25 -13 5 -8 -14 4 -38
13 -55 20 -24 11 -25 13 -5 8 14 -4 39 -13 55 -20z m-585 -109 c7 -8 9 -15 6
-15 -4 0 -14 7 -22 15 -9 8 -11 15 -6 15 5 0 15 -7 22 -15z m60 -45 c14 -11
20 -20 14 -20 -7 0 -22 9 -35 20 -31 25 -12 26 21 0z m55 -40 c3 -6 -1 -7 -9
-4 -18 7 -21 14 -7 14 6 0 13 -4 16 -10z m-1601 -250 c7 -7 -1 -8 -24 -4 -19
4 -39 11 -45 17 -7 6 2 7 25 3 19 -3 39 -11 44 -16z m-29 -268 c-6 -7 -35 18
-35 31 0 5 9 2 20 -8 11 -10 18 -20 15 -23z m-308 -1338 c-3 -3 -12 -4 -19 -1
-8 3 -5 6 6 6 11 1 17 -2 13 -5z"/>
<path d="M4880 2366 c0 -2 8 -10 18 -17 15 -13 16 -12 3 4 -13 16 -21 21 -21
13z"/>
<path d="M6275 4630 c3 -5 8 -10 11 -10 2 0 4 5 4 10 0 6 -5 10 -11 10 -5 0
-7 -4 -4 -10z"/>
<path d="M6322 4620 c0 -14 2 -19 5 -12 2 6 2 18 0 25 -3 6 -5 1 -5 -13z"/>
<path d="M2536 4455 c-9 -35 -16 -77 -16 -92 1 -47 19 -4 29 71 5 36 12 70 16
76 3 5 2 10 -3 10 -5 0 -17 -29 -26 -65z"/>
<path d="M2061 4473 c-1 -18 19 -67 25 -61 3 3 -2 21 -10 39 -8 19 -15 29 -15
22z"/>
<path d="M2320 4440 c0 -11 5 -20 10 -20 6 0 10 -7 10 -17 0 -9 2 -14 5 -11 8
8 -6 68 -16 68 -5 0 -9 -9 -9 -20z"/>
<path d="M4560 4406 c0 -2 7 -7 16 -10 8 -3 12 -2 9 4 -6 10 -25 14 -25 6z"/>
<path d="M4636 4399 c4 -6 0 -15 -7 -20 -11 -7 -11 -9 2 -9 22 0 32 27 13 34
-9 4 -12 2 -8 -5z"/>
<path d="M2075 4340 c3 -5 1 -10 -4 -10 -8 0 -8 -6 -2 -17 6 -10 21 -44 35
-75 15 -35 31 -58 40 -58 9 0 16 -4 16 -8 0 -4 9 -8 20 -9 19 -2 19 0 -5 35
-14 20 -25 42 -25 49 0 7 -3 13 -7 13 -5 0 -21 20 -36 45 -16 25 -31 45 -34
45 -2 0 -1 -4 2 -10z"/>
<path d="M1923 4298 c15 -20 27 -41 27 -46 0 -13 110 -132 122 -132 6 0 -6 18
-26 40 -20 22 -36 43 -36 48 -1 4 -26 34 -57 67 -33 35 -45 45 -30 23z"/>
<path d="M2183 4250 c14 -40 28 -64 36 -62 7 1 20 -3 28 -10 17 -13 -33 69
-67 112 -18 23 -18 21 3 -40z"/>
<path d="M2351 4265 c0 -11 4 -29 9 -40 8 -18 9 -18 9 5 0 14 -4 32 -9 40 -8
12 -10 12 -9 -5z"/>
<path d="M2527 4274 c-4 -4 -7 -30 -7 -58 0 -39 3 -47 12 -38 9 9 15 5 27 -21
l15 -32 4 49 c2 27 -2 54 -7 59 -8 8 -11 5 -12 -8 -1 -11 -6 -3 -13 18 -6 21
-15 35 -19 31z"/>
<path d="M2392 4250 c0 -14 2 -19 5 -12 2 6 2 18 0 25 -3 6 -5 1 -5 -13z"/>
<path d="M5817 4223 c-11 -10 -8 -53 3 -53 6 0 10 14 10 30 0 31 -2 35 -13 23z"/>
<path d="M2390 4193 c0 -4 5 -15 10 -23 8 -13 10 -13 10 2 0 9 -4 20 -10 23
-5 3 -10 3 -10 -2z"/>
<path d="M1745 4122 c67 -64 112 -94 137 -90 19 3 6 15 -71 66 -52 34 -97 62
-100 62 -3 0 12 -17 34 -38z"/>
<path d="M3465 4140 c3 -5 11 -10 16 -10 6 0 7 5 4 10 -3 6 -11 10 -16 10 -6
0 -7 -4 -4 -10z"/>
<path d="M3513 4025 c-10 -6 -30 -15 -44 -18 -34 -8 -79 -48 -79 -70 0 -9 -3
-17 -6 -17 -11 0 -33 28 -27 34 4 3 1 6 -5 6 -6 0 -17 -7 -26 -15 -8 -8 -20
-15 -27 -15 -7 0 -23 -10 -37 -22 -21 -21 -35 -23 -130 -25 -59 -1 -141 1
-183 5 -78 8 -100 5 -134 -15 -16 -9 -18 -14 -7 -24 21 -22 14 -29 -27 -29
-31 0 -40 -4 -40 -17 0 -49 -10 -86 -28 -106 -11 -12 -26 -32 -32 -45 -9 -17
-16 -21 -25 -13 -7 6 -16 8 -19 4 -4 -3 -7 -1 -7 5 0 5 6 13 13 15 6 3 2 6
-10 6 -14 1 -23 9 -26 24 l-4 22 -2 -22 c0 -13 -5 -23 -10 -23 -15 0 -23 18
-11 25 6 4 7 11 4 17 -4 6 -1 14 5 18 9 5 8 10 -4 20 -12 10 -15 10 -15 -4 0
-20 -16 -21 -24 -1 -3 9 -11 15 -18 14 -7 -1 -26 3 -42 10 -16 6 -36 9 -44 6
-9 -3 -29 7 -49 27 -25 24 -33 28 -33 15 0 -9 -7 -17 -15 -17 -8 0 -12 -6 -9
-13 10 -28 -19 -37 -79 -25 -59 12 -78 8 -59 -15 7 -8 7 -18 2 -27 -7 -11 -10
-12 -10 -2 0 7 -7 20 -15 28 -18 18 -18 14 -5 -20 6 -17 6 -26 0 -26 -6 0 -10
6 -10 13 0 9 -16 14 -50 15 -27 0 -50 -3 -50 -9 0 -5 -9 -9 -21 -9 -11 0 -17
-4 -14 -10 3 -5 -1 -10 -10 -10 -9 0 -13 -5 -10 -10 9 -15 -27 -55 -49 -55
-10 0 -23 9 -27 20 -8 20 -8 20 -8 0 -1 -24 -37 -50 -47 -34 -4 7 -13 4 -25
-7 -11 -9 -22 -14 -26 -11 -3 4 0 7 7 7 7 0 11 2 8 5 -11 11 -57 -7 -52 -20 3
-7 -2 -15 -11 -19 -14 -5 -14 -8 0 -30 11 -16 13 -26 6 -31 -6 -3 -11 0 -11 7
0 7 -7 2 -16 -10 -12 -17 -21 -21 -41 -16 -16 4 -28 2 -34 -7 -8 -12 -10 -12
-18 0 -8 13 -15 12 -45 -4 -19 -10 -33 -22 -30 -26 2 -4 -4 -10 -15 -14 -10
-3 -18 -13 -17 -23 1 -13 -6 -17 -29 -16 -16 0 -34 -5 -38 -13 -4 -7 -17 -13
-28 -13 -11 0 -22 -7 -25 -15 -4 -8 -12 -15 -20 -15 -8 0 -14 -4 -14 -10 0 -5
-16 -16 -35 -24 -19 -8 -35 -21 -35 -29 0 -7 -24 -24 -53 -37 -28 -13 -63 -32
-77 -41 -14 -9 -43 -22 -65 -29 -22 -7 -43 -17 -46 -22 -3 -5 -28 -11 -55 -14
-60 -7 -85 -31 -56 -54 12 -10 16 -21 11 -30 -4 -8 -10 -24 -14 -34 -5 -18 -6
-18 -19 -1 -13 18 -26 18 -69 0 -13 -6 -16 -3 -11 9 3 9 1 16 -4 16 -15 0 -62
-45 -62 -59 0 -18 -18 -13 -33 9 -11 16 -21 19 -40 15 -20 -5 -25 -3 -24 12 2
13 -6 19 -30 21 -18 2 -33 7 -33 13 0 5 -11 9 -25 9 -14 0 -25 4 -25 9 0 4
-24 6 -53 4 l-52 -4 25 20 c14 11 30 21 35 21 6 1 1 5 -10 9 -11 5 -25 4 -32
-1 -7 -6 -14 -5 -18 2 -4 7 2 14 15 17 15 4 18 8 9 14 -7 4 -26 1 -43 -8 -27
-14 -31 -14 -43 3 -12 17 -13 17 -14 -2 0 -14 -5 -10 -16 14 -15 29 -43 45
-43 23 0 -13 -39 -21 -47 -9 -3 6 -1 8 4 5 6 -4 18 4 27 18 18 28 10 35 -9 8
-10 -14 -11 -11 -7 15 3 21 0 30 -10 29 -34 -1 -46 5 -52 26 -5 18 -8 19 -16
7 -8 -13 -12 -11 -30 7 -11 12 -20 29 -20 38 0 9 -5 13 -11 9 -6 -3 -24 6 -40
22 -23 22 -29 24 -29 11 0 -9 -6 -17 -13 -17 -21 0 -28 12 -16 27 15 17 0 17
-52 1 l-39 -11 0 -1684 0 -1683 1703 0 c964 0 1708 4 1716 9 11 7 10 14 -8 39
-11 17 -21 33 -21 37 0 3 -11 21 -25 39 -14 18 -25 38 -25 44 0 7 -4 12 -10
12 -5 0 -10 7 -10 15 0 8 9 15 20 15 21 0 101 38 134 64 12 10 16 21 11 33 -6
16 -13 45 -19 81 -1 8 -9 18 -17 23 -11 7 -9 9 8 9 24 0 43 26 43 58 0 10 11
24 25 30 14 6 25 18 25 27 0 8 7 15 16 15 14 0 16 8 10 59 -5 46 -3 61 9 71 8
7 15 20 15 30 0 10 7 20 15 24 8 3 15 16 15 30 0 15 7 25 19 29 14 3 18 12 16
38 -1 18 6 47 16 65 9 18 15 35 12 38 -3 3 1 16 10 29 17 26 20 84 5 93 -4 3
-8 14 -8 25 0 12 -4 17 -11 14 -7 -5 -8 4 -4 27 3 18 1 46 -5 62 -8 22 -8 31
1 37 6 4 9 11 5 17 -9 15 4 42 20 42 8 0 14 10 14 26 0 18 4 25 14 21 19 -7
30 22 15 39 -13 15 -2 77 12 68 5 -3 9 0 9 5 0 6 -7 11 -15 11 -8 0 -15 5 -15
11 0 6 6 9 13 6 8 -3 12 7 13 29 0 21 -5 34 -14 36 -17 4 -25 99 -9 109 5 4 6
13 1 20 -4 7 -9 43 -11 79 -2 36 -5 73 -7 83 -2 9 2 17 9 17 16 0 26 49 15 70
-5 8 -5 35 0 58 4 24 5 79 3 124 -3 51 -1 78 5 74 5 -3 9 0 8 7 0 6 4 13 9 14
6 2 11 -12 11 -30 1 -17 2 -44 3 -58 0 -15 7 -29 14 -32 10 -4 12 4 10 27 -2
29 -2 30 7 6 7 -20 9 -14 7 30 -1 42 2 55 13 55 12 0 14 12 12 50 -2 40 2 55
18 72 11 12 20 29 20 38 0 8 5 15 10 15 6 0 10 11 10 25 0 13 7 28 17 33 10 6
16 21 15 41 0 17 3 29 8 26 5 -3 12 22 16 56 4 37 12 63 20 66 8 3 14 11 14
19 0 8 4 14 9 14 6 0 11 17 13 38 2 21 8 36 14 35 7 -1 12 12 12 35 -1 20 2
54 5 75 4 30 1 43 -14 58 -25 25 -24 33 6 49 15 8 24 19 20 28 -3 7 -2 19 2
25 5 7 9 23 10 37 4 52 9 65 29 82 16 13 20 26 18 69 -2 30 2 56 8 60 6 4 -3
15 -21 25 -40 24 -40 37 2 30 17 -3 26 -3 19 0 -6 3 -9 10 -6 15 3 6 1 15 -4
22 -5 7 -9 26 -9 42 0 22 -10 41 -33 65 -30 31 -31 34 -15 46 22 16 13 30 -25
37 -35 7 -41 27 -8 27 l22 0 -22 16 c-13 9 -22 25 -21 37 4 41 -1 58 -13 51
-7 -5 -9 -2 -5 8 5 13 -1 15 -36 11 -29 -3 -38 -2 -28 5 11 8 10 12 -5 21 -16
9 -13 10 16 6 28 -5 31 -4 13 4 -12 5 -26 18 -32 28 -6 10 -11 14 -11 8 0 -5
-9 1 -20 15 -20 24 -21 24 -35 6 -8 -10 -16 -24 -18 -30 -2 -6 -8 -8 -12 -3
-5 4 -2 22 7 40 13 27 13 34 2 45 -7 6 -18 12 -24 12 -5 0 -10 5 -10 11 0 8
-4 8 -14 0 -19 -16 -28 1 -20 34 5 19 1 30 -13 43 -11 9 -28 32 -38 50 -11 17
-23 32 -27 32 -4 0 -8 6 -8 14 0 24 -137 42 -167 21z m-513 -274 c24 -5 46
-14 48 -19 2 -6 14 -22 28 -37 30 -33 24 -44 -10 -21 -14 9 -30 16 -36 16 -6
0 -25 10 -41 23 -27 19 -42 22 -117 21 -80 -1 -84 0 -57 12 34 15 120 17 185
5z m-253 -97 c-3 -20 -14 -42 -24 -49 -16 -12 -18 -11 -21 15 -3 28 22 70 42
70 5 0 6 -16 3 -36z m23 -44 c0 -5 -4 -10 -10 -10 -5 0 -10 5 -10 10 0 6 5 10
10 10 6 0 10 -4 10 -10z m1228 -20 c-14 -22 -24 -19 -15 5 4 8 11 15 17 15 6
0 6 -7 -2 -20z m-1145 -167 c9 -9 -13 -34 -24 -27 -14 8 -11 34 4 34 8 0 17
-3 20 -7z m-2453 -286 c0 -4 -7 -2 -15 7 -8 8 -15 21 -15 28 1 14 30 -20 30
-35z m210 -97 c0 -5 -5 -10 -11 -10 -5 0 -7 5 -4 10 3 6 8 10 11 10 2 0 4 -4
4 -10z m775 -11 c4 -5 12 -8 18 -6 6 2 31 -11 55 -30 24 -18 48 -33 53 -33 5
0 9 -6 9 -14 0 -20 52 -31 65 -14 7 11 20 12 53 5 23 -4 42 -12 42 -17 0 -5
12 -11 28 -15 30 -7 72 -38 72 -54 0 -15 48 -60 56 -52 4 3 4 -2 1 -11 -4 -11
0 -21 11 -27 15 -9 15 -10 -3 -11 l-20 -1 20 -10 c121 -60 159 -86 162 -113
l4 -28 -58 4 c-56 4 -70 10 -265 109 -21 11 -72 51 -115 89 -43 38 -83 70 -90
70 -6 0 -20 14 -30 30 -9 17 -20 30 -23 30 -7 0 -70 94 -70 104 0 10 18 7 25
-5z m-690 -108 c3 -5 1 -12 -5 -16 -5 -3 -10 1 -10 9 0 18 6 21 15 7z m3099
-643 c3 -13 6 -27 6 -33 -1 -15 -30 27 -30 42 0 22 17 15 24 -9z m-17 -48 c2
-11 -2 -20 -7 -20 -6 0 -10 12 -10 27 0 29 12 24 17 -7z m-3727 -1355 c-13
-14 -28 -25 -34 -25 -11 1 40 50 51 50 4 0 -4 -11 -17 -25z"/>
<path d="M4307 3449 c-9 -6 -27 -7 -40 -4 l-22 7 22 -17 c13 -9 58 -20 105
-25 91 -10 248 -9 248 2 0 11 -206 48 -265 48 -16 -1 -38 -5 -48 -11z"/>
<path d="M4403 3360 c27 -8 101 -14 122 -10 24 5 -45 18 -95 18 -45 0 -50 -1
-27 -8z"/>
<path d="M4545 3351 c6 -11 70 -19 195 -24 105 -5 74 8 -54 22 -117 13 -149
14 -141 2z"/>
<path d="M4330 3250 c-12 -9 -9 -11 16 -8 23 3 31 1 27 -8 -3 -8 10 -17 35
-24 31 -10 44 -10 65 1 16 9 23 19 19 26 -11 17 -143 27 -162 13z"/>
<path d="M4280 2918 c0 -14 30 -22 41 -11 7 7 2 12 -15 15 -14 3 -26 1 -26 -4z"/>
<path d="M4060 2452 c0 -12 19 -26 26 -19 2 2 -2 10 -11 17 -9 8 -15 8 -15 2z"/>
<path d="M3658 163 c7 -3 16 -2 19 1 4 3 -2 6 -13 5 -11 0 -14 -3 -6 -6z"/>
</g>
</svg>
